<?xml version="1.0" encoding="UTF-8" standalone="no"?>
<svg
   xmlns:dc="http://purl.org/dc/elements/1.1/"
   xmlns:cc="http://creativecommons.org/ns#"
   xmlns:rdf="http://www.w3.org/1999/02/22-rdf-syntax-ns#"
   xmlns:svg="http://www.w3.org/2000/svg"
   xmlns="http://www.w3.org/2000/svg"
   viewBox="0 0 50 50"
   version="1.1"
   id="svg881">
  <metadata
     id="metadata887">
    <rdf:RDF>
      <cc:Work
         rdf:about="">
        <dc:format>image/svg+xml</dc:format>
        <dc:type
           rdf:resource="http://purl.org/dc/dcmitype/StillImage" />
        <dc:title></dc:title>
      </cc:Work>
    </rdf:RDF>
  </metadata>
  <defs
     id="defs885" />
  <path
     d="M 7,2 V 48 H 43 V 47 15.410156 L 29.183594,2 Z M 9,4 H 28 V 17 H 41 V 46 H 9 Z M 30,5.5800781 39.707031,15 H 30 Z M 25.189453,24.236328 c -0.02906,0.01761 -0.01429,0.0077 -0.04687,0.02734 0.0241,-0.01193 0.03415,-0.01702 0.05469,-0.02734 -0.0026,7.7e-5 -0.0052,-7.8e-5 -0.0078,0 z"
     style="line-height:normal;text-indent:0;text-align:start;text-decoration-line:none;text-decoration-style:solid;text-decoration-color:#000;text-transform:none;block-progression:tb;isolation:auto;mix-blend-mode:normal;fill:#dddddd;fill-opacity:0.93333334"
     id="path879" />
  <text
     id="text818"
     y="13.52108"
     x="21.797464"
     style="font-style:normal;font-weight:normal;font-size:26.66666667px;line-height:1.25;font-family:sans-serif;letter-spacing:0px;word-spacing:0px;fill:#dddddd;fill-opacity:0.93333334;stroke:none;"
     xml:space="preserve"><tspan
       y="48.911705"
       x="21.797464"
       id="tspan816" /></text>
  <text
     id="text826"
     y="20.262564"
     x="11.984861"
     style="font-style:normal;font-weight:normal;font-size:13.33333333px;line-height:1.25;font-family:sans-serif;letter-spacing:0px;word-spacing:0px;fill:#dddddd;fill-opacity:0.93333334;stroke:none;"
     xml:space="preserve"><tspan
       y="24.981314"
       x="11.984861"
       id="tspan824" /></text>
  <path
     d="m 33.716797,29.394531 c -0.375,0 -0.755642,0.02843 -1.144531,0.08398 -0.388889,0.05555 -0.781901,0.138889 -1.177735,0.25 v 1.46875 c 0.326389,-0.142361 0.654514,-0.251302 0.984375,-0.324219 0.329861,-0.07292 0.655599,-0.109375 0.978516,-0.109375 0.4375,0 0.776042,0.0829 1.015625,0.246094 0.239583,0.163194 0.359375,0.392795 0.359375,0.691406 0,0.322917 -0.122613,0.564887 -0.369141,0.724609 -0.246528,0.15625 -0.621528,0.234375 -1.125,0.234375 h -0.84375 v 1.291016 h 0.802735 c 0.565972,0 0.993055,0.09332 1.28125,0.277344 0.291666,0.180555 0.4375,0.446614 0.4375,0.800781 0,0.34375 -0.143013,0.608941 -0.427735,0.792969 -0.28125,0.184027 -0.6875,0.27539 -1.21875,0.27539 -0.357639,0 -0.722222,-0.04687 -1.09375,-0.140625 -0.368055,-0.09722 -0.740234,-0.240234 -1.115234,-0.427734 v 1.546875 c 0.392361,0.128472 0.788194,0.224609 1.1875,0.287109 0.402778,0.06597 0.803819,0.09961 1.203125,0.09961 1.131944,0 1.993706,-0.200304 2.583984,-0.59961 0.590278,-0.402778 0.884766,-0.988932 0.884766,-1.759765 0,-0.517362 -0.135851,-0.944011 -0.410156,-1.277344 -0.270834,-0.336806 -0.669054,-0.571615 -1.19336,-0.707031 0.46875,-0.118056 0.822917,-0.321181 1.0625,-0.609375 0.239584,-0.291667 0.359375,-0.666233 0.359375,-1.121094 0,-0.666667 -0.252387,-1.16428 -0.755859,-1.494141 -0.5,-0.333333 -1.255208,-0.5 -2.265625,-0.5 z m -20.828125,0.140625 v 7.775391 h 1.902344 v -5.6875 l 1.791015,4.193359 h 1.271485 l 1.791015,-4.193359 v 5.6875 h 1.896485 v -7.775391 h -2.546875 l -1.78125,4.16211 -1.771485,-4.16211 z m 10.625,0 v 7.775391 h 2.005859 v -2.697266 h 1.322266 c 0.989583,0 1.749566,-0.21875 2.277344,-0.65625 0.53125,-0.440972 0.796875,-1.068793 0.796875,-1.884765 0,-0.8125 -0.265625,-1.4375 -0.796875,-1.875 -0.527778,-0.440973 -1.287761,-0.66211 -2.277344,-0.66211 z m 2.005859,1.453125 h 1.109375 c 0.388889,0 0.688585,0.09375 0.900391,0.28125 0.211805,0.1875 0.318359,0.455512 0.318359,0.802735 0,0.347222 -0.106554,0.615668 -0.318359,0.80664 -0.211806,0.1875 -0.511502,0.28125 -0.900391,0.28125 h -1.109375 z"
     style="font-style:normal;font-weight:normal;font-size:10.66666698px;line-height:1.25;font-family:sans-serif;letter-spacing:0px;word-spacing:0px;fill:#dddddd;fill-opacity:0.93333334;stroke:none"
     id="text834" />
</svg>
