<?xml version="1.0" encoding="UTF-8" standalone="no"?>
<svg
   xmlns:dc="http://purl.org/dc/elements/1.1/"
   xmlns:cc="http://creativecommons.org/ns#"
   xmlns:rdf="http://www.w3.org/1999/02/22-rdf-syntax-ns#"
   xmlns:svg="http://www.w3.org/2000/svg"
   xmlns="http://www.w3.org/2000/svg"
   id="svg961"
   version="1.1"
   viewBox="0 0 75.256386 7.617106"
   height="7.617106mm"
   width="75.256386mm">
  <defs
     id="defs955" />
  <metadata
     id="metadata958">
    <rdf:RDF>
      <cc:Work
         rdf:about="">
        <dc:format>image/svg+xml</dc:format>
        <dc:type
           rdf:resource="http://purl.org/dc/dcmitype/StillImage" />
        <dc:title></dc:title>
      </cc:Work>
    </rdf:RDF>
  </metadata>
  <g
     transform="translate(-67.019681,-45.970453)"
     id="layer1">
    <g
       id="flowRoot1509"
       style="font-style:normal;font-weight:normal;font-size:40px;line-height:1.25;font-family:sans-serif;letter-spacing:0px;word-spacing:0px;fill:#000000;fill-opacity:1;stroke:none"
       transform="scale(0.26458333)"
       aria-label="STEGONAUT">
      <path
         id="path1517"
         style="font-style:normal;font-variant:normal;font-weight:normal;font-stretch:normal;font-size:40px;font-family:Audiowide;-inkscape-font-specification:'Audiowide, Normal';font-variant-ligatures:normal;font-variant-caps:normal;font-variant-numeric:normal;font-feature-settings:normal;text-align:start;writing-mode:lr-tb;text-anchor:start;fill:#ff9900;fill-opacity:1"
         d="m 281.29102,193.90285 q 0,1.5039 -0.39063,2.71484 -0.37109,1.19141 -0.99609,2.10937 -0.625,0.91797 -1.46485,1.5625 -0.83984,0.64454 -1.73828,1.05469 -0.89844,0.41016 -1.83594,0.60547 -0.91796,0.19531 -1.73828,0.19531 h -19.58984 v -5.07812 h 19.58984 q 1.46485,0 2.26563,-0.85938 0.82031,-0.85937 0.82031,-2.30468 0,-0.70313 -0.21484,-1.28907 -0.21485,-0.58593 -0.625,-1.01562 -0.39063,-0.42969 -0.97657,-0.66406 -0.5664,-0.23438 -1.26953,-0.23438 h -11.67968 q -1.23047,0 -2.65625,-0.42969 -1.42579,-0.44922 -2.65625,-1.42578 -1.21094,-0.97656 -2.03125,-2.55859 -0.80079,-1.58203 -0.80079,-3.86719 0,-2.28516 0.80079,-3.84766 0.82031,-1.58203 2.03125,-2.55859 1.23046,-0.99609 2.65625,-1.42578 1.42578,-0.44922 2.65625,-0.44922 h 17.28515 v 5.07813 h -17.28515 q -1.44532,0 -2.26563,0.8789 -0.80078,0.87891 -0.80078,2.32422 0,1.46484 0.80078,2.32422 0.82031,0.83984 2.26563,0.83984 h 11.67968 0.0391 q 0.82031,0.0195 1.73828,0.23438 0.91797,0.19531 1.8164,0.625 0.91797,0.42969 1.73828,1.09375 0.82032,0.64453 1.44532,1.5625 0.64453,0.91797 1.01562,2.10937 0.3711,1.19141 0.3711,2.69532 z" />
      <path
         id="path1519"
         style="font-style:normal;font-variant:normal;font-weight:normal;font-stretch:normal;font-size:40px;font-family:Audiowide;-inkscape-font-specification:'Audiowide, Normal';font-variant-ligatures:normal;font-variant-caps:normal;font-variant-numeric:normal;font-feature-settings:normal;text-align:start;writing-mode:lr-tb;text-anchor:start;fill:#ff9900;fill-opacity:1"
         d="m 310.54883,179.21535 h -11.19141 v 22.92968 h -5.07812 v -22.92968 h -11.21094 v -5.07813 h 27.48047 z" />
      <path
         id="path1521"
         style="font-style:normal;font-variant:normal;font-weight:normal;font-stretch:normal;font-size:40px;font-family:Audiowide;-inkscape-font-specification:'Audiowide, Normal';font-variant-ligatures:normal;font-variant-caps:normal;font-variant-numeric:normal;font-feature-settings:normal;text-align:start;writing-mode:lr-tb;text-anchor:start;fill:#ff9900;fill-opacity:1"
         d="m 337.32617,190.69972 h -16.03515 v -5.11719 h 16.03515 z m 2.28516,11.44531 h -18.32031 q -1.05469,0 -2.30469,-0.37109 -1.25,-0.37109 -2.32422,-1.21094 -1.05469,-0.85937 -1.77734,-2.20703 -0.70313,-1.36719 -0.70313,-3.33984 v -18.32032 q 0,-0.52734 0.19531,-0.99609 0.19532,-0.46875 0.52735,-0.82031 0.35156,-0.35156 0.82031,-0.54688 0.46875,-0.19531 1.01562,-0.19531 h 22.8711 v 5.07813 h -20.35156 v 15.80078 q 0,0.99609 0.52734,1.52343 0.52734,0.52735 1.54297,0.52735 h 18.28125 z" />
      <path
         id="path1523"
         style="font-style:normal;font-variant:normal;font-weight:normal;font-stretch:normal;font-size:40px;font-family:Audiowide;-inkscape-font-specification:'Audiowide, Normal';font-variant-ligatures:normal;font-variant-caps:normal;font-variant-numeric:normal;font-feature-settings:normal;text-align:start;writing-mode:lr-tb;text-anchor:start;fill:#ff9900;fill-opacity:1"
         d="m 372.01367,199.58644 q 0,0.54687 -0.19531,1.01562 -0.19531,0.46875 -0.54688,0.82032 -0.33203,0.33203 -0.80078,0.52734 -0.46875,0.19531 -1.01562,0.19531 h -18.32031 q -0.70313,0 -1.52344,-0.15625 -0.80078,-0.17578 -1.60156,-0.52734 -0.78125,-0.35156 -1.50391,-0.89844 -0.72266,-0.5664 -1.28906,-1.34765 -0.54688,-0.80079 -0.87891,-1.83594 -0.33203,-1.05469 -0.33203,-2.36328 v -13.75 q 0,-0.70313 0.15625,-1.50391 0.17578,-0.82031 0.52734,-1.60156 0.35157,-0.80078 0.91797,-1.52344 0.56641,-0.72266 1.34766,-1.26953 0.80078,-0.56641 1.83594,-0.89844 1.03515,-0.33203 2.34375,-0.33203 h 20.64453 v 5.07813 h -20.64453 q -0.9961,0 -1.52344,0.52734 -0.52735,0.52734 -0.52735,1.5625 v 13.71094 q 0,0.97656 0.52735,1.52343 0.54687,0.52735 1.52344,0.52735 h 15.80078 v -6.36719 h -13.51563 v -5.11719 h 16.03516 q 0.54687,0 1.01562,0.21485 0.46875,0.19531 0.80078,0.54687 0.35157,0.35156 0.54688,0.82031 0.19531,0.44922 0.19531,0.97657 z" />
      <path
         id="path1525"
         style="font-style:normal;font-variant:normal;font-weight:normal;font-stretch:normal;font-size:40px;font-family:Audiowide;-inkscape-font-specification:'Audiowide, Normal';font-variant-ligatures:normal;font-variant-caps:normal;font-variant-numeric:normal;font-feature-settings:normal;text-align:start;writing-mode:lr-tb;text-anchor:start;fill:#ff9900;fill-opacity:1"
         d="m 406.74023,190.81691 q 0,2.55859 -0.8789,4.70703 -0.87891,2.14844 -2.44141,3.71094 -1.5625,1.5625 -3.71094,2.4414 -2.1289,0.85938 -4.64843,0.85938 h -6.875 q -2.51953,0 -4.66797,-0.85938 -2.14844,-0.8789 -3.71094,-2.4414 -1.5625,-1.5625 -2.46094,-3.71094 -0.8789,-2.14844 -0.8789,-4.70703 v -5.35156 q 0,-2.53907 0.8789,-4.6875 0.89844,-2.16797 2.46094,-3.71094 1.5625,-1.5625 3.71094,-2.44141 2.14844,-0.8789 4.66797,-0.8789 h 6.875 q 2.51953,0 4.64843,0.8789 2.14844,0.87891 3.71094,2.44141 1.5625,1.54297 2.44141,3.71094 0.8789,2.14843 0.8789,4.6875 z m -5.07812,-5.35156 q 0,-1.50391 -0.48828,-2.71485 -0.46875,-1.23047 -1.34766,-2.08984 -0.85937,-0.87891 -2.08984,-1.34766 -1.21094,-0.48828 -2.67578,-0.48828 h -6.875 q -1.48438,0 -2.71485,0.48828 -1.21093,0.46875 -2.08984,1.34766 -0.87891,0.85937 -1.36719,2.08984 -0.46875,1.21094 -0.46875,2.71485 v 5.35156 q 0,1.5039 0.46875,2.73437 0.48828,1.21094 1.36719,2.08985 0.87891,0.85937 2.08984,1.34765 1.23047,0.46875 2.71485,0.46875 h 6.83593 q 1.48438,0 2.69532,-0.46875 1.23047,-0.48828 2.10937,-1.34765 0.87891,-0.87891 1.34766,-2.08985 0.48828,-1.23047 0.48828,-2.73437 z" />
      <path
         id="path1527"
         style="font-style:normal;font-variant:normal;font-weight:normal;font-stretch:normal;font-size:40px;font-family:Audiowide;-inkscape-font-specification:'Audiowide, Normal';font-variant-ligatures:normal;font-variant-caps:normal;font-variant-numeric:normal;font-feature-settings:normal;text-align:start;writing-mode:lr-tb;text-anchor:start;fill:#ff9900;fill-opacity:1"
         d="m 439.78711,199.97706 q 0,0.54688 -0.21484,1.01563 -0.19532,0.46875 -0.54688,0.82031 -0.33203,0.33203 -0.80078,0.52735 -0.46875,0.19531 -0.99609,0.19531 -0.46875,0 -0.95704,-0.17578 -0.46875,-0.17578 -0.83984,-0.56641 l -18.55469,-19.375 v 19.72656 h -5.07812 v -25.83984 q 0,-0.78125 0.42969,-1.40625 0.44921,-0.64453 1.13281,-0.95703 0.72265,-0.29297 1.48437,-0.13672 0.76172,0.13672 1.3086,0.70312 l 18.55468,19.35547 v -19.72656 h 5.07813 z" />
      <path
         id="path1529"
         style="font-style:normal;font-variant:normal;font-weight:normal;font-stretch:normal;font-size:40px;font-family:Audiowide;-inkscape-font-specification:'Audiowide, Normal';font-variant-ligatures:normal;font-variant-caps:normal;font-variant-numeric:normal;font-feature-settings:normal;text-align:start;writing-mode:lr-tb;text-anchor:start;fill:#ff9900;fill-opacity:1"
         d="m 473.18555,202.14503 h -5.07813 v -6.875 h -17.85156 v 6.875 h -5.07813 v -14.0039 q 0,-3.06641 1.05469,-5.64453 1.05469,-2.57813 2.92969,-4.4336 1.875,-1.85547 4.43359,-2.89062 2.5586,-1.03516 5.58594,-1.03516 h 11.44531 q 0.52735,0 0.9961,0.19531 0.46875,0.19532 0.82031,0.54688 0.35156,0.35156 0.54687,0.82031 0.19532,0.46875 0.19532,0.99609 z m -22.92969,-11.95312 h 17.85156 v -10.97656 h -8.92578 q -0.23437,0 -0.99609,0.0781 -0.74219,0.0586 -1.73828,0.33203 -0.97657,0.27344 -2.07032,0.83985 -1.09375,0.5664 -2.01172,1.5625 -0.91796,0.99609 -1.52343,2.5 -0.58594,1.48437 -0.58594,3.61328 z" />
      <path
         id="path1531"
         style="font-style:normal;font-variant:normal;font-weight:normal;font-stretch:normal;font-size:40px;font-family:Audiowide;-inkscape-font-specification:'Audiowide, Normal';font-variant-ligatures:normal;font-variant-caps:normal;font-variant-numeric:normal;font-feature-settings:normal;text-align:start;writing-mode:lr-tb;text-anchor:start;fill:#ff9900;fill-opacity:1"
         d="m 506.50586,199.58644 q 0,0.54687 -0.19531,1.01562 -0.19532,0.46875 -0.54688,0.82032 -0.35156,0.33203 -0.82031,0.52734 -0.46875,0.19531 -0.99609,0.19531 h -11.44532 q -1.62109,0 -3.28125,-0.35156 -1.66015,-0.35156 -3.22265,-1.07422 -1.54297,-0.74219 -2.91016,-1.875 -1.36719,-1.13281 -2.40234,-2.67578 -1.01563,-1.5625 -1.60157,-3.55469 -0.58593,-2.01172 -0.58593,-4.47265 v -14.00391 h 5.07812 v 14.00391 q 0,2.14843 0.58594,3.63281 0.60547,1.48437 1.52344,2.48047 0.91797,0.99609 2.01172,1.5625 1.09375,0.5664 2.07031,0.83984 0.99609,0.27344 1.73828,0.35156 0.76172,0.0586 0.99609,0.0586 h 8.92578 v -22.92969 h 5.07813 z" />
      <path
         id="path1533"
         style="font-style:normal;font-variant:normal;font-weight:normal;font-stretch:normal;font-size:40px;font-family:Audiowide;-inkscape-font-specification:'Audiowide, Normal';font-variant-ligatures:normal;font-variant-caps:normal;font-variant-numeric:normal;font-feature-settings:normal;text-align:start;writing-mode:lr-tb;text-anchor:start;fill:#ff9900;fill-opacity:1"
         d="m 537.73633,179.21535 h -11.19141 v 22.92968 h -5.07812 v -22.92968 h -11.21094 v -5.07813 h 27.48047 z" />
    </g>
  </g>
</svg>
